<?xml version="1.0" encoding="utf-8"?>
<svg xmlns="http://www.w3.org/2000/svg" height="166" viewBox="0 0 166 166" width="166">
  <path d="M.88 0H40.7v5.69H.87V0Zm68.27 0h5.69v5.69h-5.69V0Zm17.07 0h5.69v5.69h-5.69V0ZM97.6 0h5.69v5.69h-5.7V0Zm28.45 0h39.83v5.69h-39.83V0ZM.88 5.69h5.68v5.69H.88V5.69Zm34.13 0h5.7v5.69H35V5.69Zm11.38 0h11.38v5.69H46.4V5.69Zm34.14 0h11.38v5.69H80.53V5.69Zm17.07 0h17.07v5.69H97.6V5.69Zm28.45 0h5.69v5.69h-5.7V5.69Zm34.14 0h5.69v5.69h-5.7V5.69ZM.88 11.38h5.68v5.69H.88v-5.7Zm11.37 0h17.07v5.69H12.25v-5.7Zm22.76 0h5.7v5.69H35v-5.7Zm17.07 0h5.7v5.69h-5.7v-5.7Zm11.38 0h11.38v5.69H63.46v-5.7Zm22.76 0h5.69v5.69h-5.69v-5.7Zm22.76 0h11.38v5.69h-11.38v-5.7Zm17.07 0h5.69v5.69h-5.7v-5.7Zm11.38 0h17.07v5.69h-17.07v-5.7Zm22.75 0h5.7v5.69h-5.7v-5.7ZM.88 17.07h5.68v5.69H.88v-5.7Zm11.37 0h17.07v5.69H12.25v-5.7Zm22.76 0h5.7v5.69H35v-5.7Zm11.38 0h11.38v5.69H46.4v-5.7Zm17.07 0h5.7v5.69h-5.7v-5.7Zm34.14 0h11.38v5.69H97.6v-5.7Zm17.07 0h5.69v5.69h-5.7v-5.7Zm11.38 0h5.69v5.69h-5.7v-5.7Zm11.38 0h17.07v5.69h-17.07v-5.7Zm22.75 0h5.7v5.69h-5.7v-5.7ZM.88 22.76h5.68v5.69H.88v-5.7Zm11.37 0h17.07v5.69H12.25v-5.7Zm22.76 0h5.7v5.69H35v-5.7Zm11.38 0h11.38v5.69H46.4v-5.7Zm22.76 0h5.69v5.69h-5.69v-5.7Zm11.38 0h34.14v5.69H80.53v-5.7Zm45.52 0h5.69v5.69h-5.7v-5.7Zm11.38 0h17.07v5.69h-17.07v-5.7Zm22.75 0h5.7v5.69h-5.7v-5.7ZM.88 28.45h5.68v5.69H.88v-5.7Zm34.13 0h5.7v5.69H35v-5.7Zm22.76 0h5.7v5.69h-5.7v-5.7Zm11.38 0h5.69v5.69h-5.69v-5.7Zm11.38 0h11.38v5.69H80.53v-5.7Zm17.07 0h5.69v5.69h-5.7v-5.7Zm28.45 0h5.69v5.69h-5.7v-5.7Zm34.14 0h5.69v5.69h-5.7v-5.7ZM.88 34.14H40.7v5.69H.87v-5.7Zm45.51 0h5.7v5.69h-5.7v-5.7Zm11.38 0h5.7v5.69h-5.7v-5.7Zm11.38 0h5.69v5.69h-5.69v-5.7Zm11.38 0h5.69v5.69h-5.69v-5.7Zm11.38 0h5.69v5.69h-5.7v-5.7Zm11.38 0h5.69v5.69h-5.7v-5.7Zm11.38 0h5.69v5.69h-5.7v-5.7Zm11.38 0h39.83v5.69h-39.83v-5.7Zm-79.66 5.69h5.7v5.69h-5.7v-5.7Zm22.76 0h5.69v5.69h-5.69v-5.7Zm22.76 0h5.69v5.69h-5.7v-5.7ZM6.56 45.52h5.7v5.69h-5.7v-5.7Zm11.38 0H40.7v5.69H17.94v-5.7Zm28.45 0h22.76v5.69H46.4v-5.7Zm28.45 0h5.69v5.69h-5.69v-5.7Zm22.76 0h5.69v5.69h-5.7v-5.7Zm17.07 0h17.07v5.69h-17.07v-5.7Zm22.76 0h11.38v5.69h-11.38v-5.7Zm17.07 0h5.69v5.69h-5.7v-5.7ZM17.94 51.2h17.07v5.69H17.94v-5.7Zm22.76 0h22.76v5.69H40.7v-5.7Zm28.45 0h5.69v5.69h-5.69v-5.7Zm17.07 0h5.69v5.69h-5.69v-5.7Zm11.38 0h11.38v5.69H97.6v-5.7Zm34.14 0h28.44v5.69h-28.44v-5.7ZM6.56 56.9h5.7v5.69h-5.7v-5.7Zm28.45 0H46.4v5.69H35.01v-5.7Zm22.76 0h5.7v5.69h-5.7v-5.7Zm11.38 0h11.38v5.69H69.15v-5.7Zm45.52 0h28.45v5.69h-28.45v-5.7ZM.87 62.59h5.7v5.69H.86v-5.7Zm11.38 0h5.7v5.69h-5.7v-5.7Zm11.38 0h11.38v5.69H23.63v-5.7Zm17.07 0h5.7v5.69h-5.7v-5.7Zm11.38 0h17.07v5.69H52.08v-5.7Zm28.45 0h11.38v5.69H80.53v-5.7Zm17.07 0h22.76v5.69H97.6v-5.7Zm34.14 0h5.69v5.69h-5.7v-5.7Zm11.38 0h5.69v5.69h-5.7v-5.7Zm17.06 0h5.7v5.69h-5.7v-5.7ZM.88 68.28h17.06v5.69H.87v-5.7Zm34.13 0h5.7v5.69H35v-5.7Zm11.38 0h5.7v5.69h-5.7v-5.7Zm17.07 0h5.7v5.69h-5.7v-5.7Zm11.38 0h5.69v5.69h-5.69v-5.7Zm34.14 0h22.76v5.69h-22.76v-5.7Zm34.14 0h5.69v5.69h-5.7v-5.7Zm11.38 0h5.69v5.69h-5.7v-5.7ZM.87 73.97h11.38v5.69H.87v-5.7Zm17.07 0h5.7v5.69h-5.7v-5.7Zm11.38 0h5.7v5.69h-5.7v-5.7Zm17.07 0h5.7v5.69h-5.7v-5.7Zm17.07 0h5.7v5.69h-5.7v-5.7Zm17.07 0h5.69v5.69h-5.69v-5.7Zm11.38 0h17.07v5.69H91.9v-5.7Zm34.14 0h5.69v5.69h-5.7v-5.7Zm11.38 0h5.69v5.69h-5.7v-5.7Zm11.38 0h5.69v5.69h-5.7v-5.7Zm11.38 0h5.69v5.69h-5.7v-5.7ZM29.31 79.66h22.76v5.68H29.32v-5.68Zm45.52 0h11.38v5.68H74.84v-5.68Zm17.07 0h5.69v5.68H91.9v-5.68Zm17.07 0h5.69v5.68h-5.7v-5.68Zm11.38 0h5.69v5.68h-5.7v-5.68Zm11.38 0h5.69v5.68h-5.7v-5.68Zm11.38 0h5.69v5.68h-5.7v-5.68Zm17.06 0h5.7v5.68h-5.7v-5.68ZM.88 85.34h22.75v5.7H.88v-5.7Zm28.44 0h5.7v5.7h-5.7v-5.7Zm17.07 0h5.7v5.7h-5.7v-5.7Zm22.76 0H97.6v5.7H69.15v-5.7Zm34.14 0h17.07v5.7h-17.07v-5.7Zm34.14 0h17.07v5.7h-17.07v-5.7ZM6.56 91.04h22.76v5.68H6.56v-5.69Zm28.45 0h34.14v5.68H35.01v-5.69Zm45.52 0h5.69v5.68h-5.69v-5.69Zm17.07 0h5.69v5.68h-5.7v-5.69Zm17.07 0h5.69v5.68h-5.7v-5.69Zm17.07 0h17.07v5.68h-17.07v-5.69Zm22.76 0h5.69v5.68h-5.7v-5.69ZM.87 96.71h17.07v5.7H.87v-5.7Zm22.76 0h5.7v5.7h-5.7v-5.7Zm51.21 0h11.38v5.7H74.84v-5.7Zm28.45 0h5.69v5.7h-5.7v-5.7Zm11.38 0h5.69v5.7h-5.7v-5.7Zm22.76 0h17.07v5.7h-17.07v-5.7ZM.87 102.42h11.38v5.68H.87v-5.69Zm34.14 0h17.07v5.68H35.01v-5.69Zm39.83 0h5.69v5.68h-5.69v-5.69Zm17.07 0h11.38v5.68H91.9v-5.69Zm17.07 0h5.69v5.68h-5.7v-5.69Zm22.76 0h5.69v5.68h-5.7v-5.69Zm17.07 0h5.69v5.68h-5.7v-5.69Zm11.38 0h5.69v5.68h-5.7v-5.69ZM.88 108.1h11.37v5.7H.87v-5.7Zm17.06 0h5.7v5.7h-5.7v-5.7Zm22.76 0h17.07v5.7H40.7v-5.7Zm22.76 0h11.38v5.7H63.46v-5.7Zm22.76 0H97.6v5.7H86.22v-5.7Zm17.07 0h28.45v5.7h-28.45v-5.7Zm39.83 0h22.75v5.7h-22.75v-5.7ZM.87 113.8h11.38v5.68H.87v-5.69Zm22.76 0h5.7v5.68h-5.7v-5.69Zm11.38 0h17.07v5.68H35.01v-5.69Zm28.45 0h5.7v5.68h-5.7v-5.69Zm17.07 0h5.69v5.68h-5.69v-5.69Zm17.07 0h5.69v5.68h-5.7v-5.69Zm17.07 0h39.83v5.68h-39.83v-5.69Zm-68.28 5.68h5.7v5.7h-5.7v-5.7Zm17.07 0h11.38v5.7H63.46v-5.7Zm51.2 0h5.7v5.7h-5.7v-5.7Zm22.77 0h22.75v5.7h-22.75v-5.7ZM.87 125.18H40.7v5.68H.87v-5.69Zm51.21 0h5.7v5.68h-5.7v-5.69Zm11.38 0h11.38v5.68H63.46v-5.69Zm17.07 0H97.6v5.68H80.53v-5.69Zm28.45 0h11.38v5.68h-11.38v-5.69Zm17.07 0h5.69v5.68h-5.7v-5.69Zm11.38 0h5.69v5.68h-5.7v-5.69Zm11.38 0h5.69v5.68h-5.7v-5.69ZM.87 130.85h5.7v5.7H.86v-5.7Zm34.14 0h5.7v5.7H35v-5.7Zm11.38 0h11.38v5.7H46.4v-5.7Zm22.76 0h11.38v5.7H69.15v-5.7Zm17.07 0h5.69v5.7h-5.69v-5.7Zm11.38 0h22.76v5.7H97.6v-5.7Zm39.83 0h11.38v5.7h-11.38v-5.7Zm17.07 0h11.38v5.7H154.5v-5.7ZM.87 136.56h5.7v5.68H.86v-5.69Zm11.38 0h17.07v5.68H12.25v-5.69Zm22.76 0h5.7v5.68H35v-5.69Zm11.38 0h11.38v5.68H46.4v-5.69Zm17.07 0h5.7v5.68h-5.7v-5.69Zm17.07 0h5.69v5.68h-5.69v-5.69Zm11.38 0h5.69v5.68h-5.7v-5.69Zm17.07 0h34.14v5.68h-34.14v-5.69Zm45.52 0h11.38v5.68H154.5v-5.69ZM.87 142.23h5.7v5.7H.86v-5.7Zm11.38 0h17.07v5.7H12.25v-5.7Zm22.76 0h5.7v5.7H35v-5.7Zm11.38 0h5.7v5.7h-5.7v-5.7Zm11.38 0h28.45v5.7H57.77v-5.7Zm45.52 0h5.69v5.7h-5.7v-5.7Zm28.45 0h5.69v5.7h-5.7v-5.7Zm22.76 0h5.69v5.7h-5.7v-5.7ZM.87 147.94h5.7v5.68H.86v-5.69Zm11.38 0h17.07v5.68H12.25v-5.69Zm22.76 0h5.7v5.68H35v-5.69Zm17.07 0h5.7v5.68h-5.7v-5.69Zm11.38 0h11.38v5.68H63.46v-5.69Zm17.07 0H97.6v5.68H80.53v-5.69Zm34.14 0h11.38v5.68h-11.38v-5.69Zm17.07 0h11.38v5.68h-11.38v-5.69Zm17.07 0h17.06v5.68h-17.06v-5.69ZM.87 153.61h5.7v5.69H.86v-5.69Zm34.14 0h5.7v5.69H35v-5.69Zm11.38 0h5.7v5.69h-5.7v-5.69Zm17.07 0H97.6v5.69H63.46v-5.69Zm39.83 0h11.38v5.69h-11.38v-5.69Zm34.14 0h17.07v5.69h-17.07v-5.69Zm22.75 0h5.7v5.69h-5.7v-5.69Zm-159.3 5.7H40.7V165H.87v-5.69Zm51.2 0h17.07V165H52.08v-5.69Zm22.76 0h5.69V165h-5.69v-5.69Zm11.38 0h5.69V165h-5.69v-5.69Zm17.07 0h5.69V165h-5.7v-5.69Zm11.38 0h39.83V165h-39.83v-5.69Z" fill="#000"/>
</svg>